<svg version="1.1" xmlns="http://www.w3.org/2000/svg" viewBox="0 0 258.52342987060547 386.13507558753383" width="258.52342987060547" height="386.13507558753383" filter="invert(93%) hue-rotate(180deg)" class="excalidraw-svg"><!-- svg-source:excalidraw --><metadata></metadata><defs><style class="style-fonts">
      </style></defs><g transform="translate(50.250709533691406 173.20933187555454) rotate(0 73.666015625 7.159996032714844)" stroke="none"><path fill="#1e1e1e" d="M -3.59,-7.24 Q -3.59,-7.24 -0.69,-8.67 2.19,-10.11 5.29,-11.61 8.39,-13.11 12.22,-14.86 16.04,-16.61 20.02,-18.69 23.99,-20.77 29.86,-24.28 35.73,-27.80 40.69,-30.58 45.64,-33.35 53.58,-37.43 61.52,-41.51 67.23,-44.36 72.94,-47.20 77.53,-49.43 82.11,-51.67 87.63,-54.23 93.15,-56.80 98.19,-59.14 103.22,-61.49 107.99,-63.26 112.76,-65.03 117.12,-66.30 121.49,-67.56 125.47,-68.26 129.45,-68.95 132.75,-69.05 136.05,-69.15 139.07,-68.43 142.09,-67.71 145.86,-64.23 149.63,-60.75 151.52,-55.22 153.41,-49.70 153.93,-45.17 154.45,-40.64 154.67,-35.71 154.89,-30.77 154.89,-26.10 154.90,-21.43 154.72,-17.00 154.54,-12.57 154.47,-7.75 154.39,-2.93 154.20,1.71 154.01,6.35 153.78,15.36 153.55,24.38 153.42,30.01 153.28,35.65 153.23,40.05 153.17,44.45 153.14,47.83 153.12,51.22 153.07,53.96 153.01,56.70 152.77,60.17 152.52,63.65 152.38,66.27 152.25,68.88 149.43,72.55 146.61,76.21 146.53,76.63 146.46,77.04 146.26,77.42 146.05,77.79 145.74,78.08 145.43,78.37 145.04,78.54 144.65,78.71 144.23,78.75 143.81,78.79 143.39,78.70 142.98,78.60 142.62,78.38 142.26,78.15 141.98,77.83 141.71,77.50 141.56,77.10 141.41,76.70 141.39,76.28 141.37,75.86 141.49,75.45 141.61,75.04 141.86,74.69 142.10,74.34 142.44,74.09 142.78,73.84 143.19,73.71 143.59,73.58 144.02,73.58 144.44,73.59 144.84,73.73 145.24,73.87 145.58,74.13 145.91,74.39 146.15,74.75 146.38,75.10 146.49,75.51 146.60,75.92 146.57,76.35 146.54,76.77 146.38,77.16 146.21,77.56 145.94,77.88 145.66,78.20 145.29,78.41 144.92,78.63 144.51,78.71 144.09,78.80 143.67,78.75 143.25,78.70 142.86,78.51 142.48,78.33 142.17,78.03 141.87,77.74 141.68,77.36 141.48,76.98 141.42,76.56 141.36,76.14 141.36,76.14 141.36,76.14 138.73,72.09 136.10,68.03 136.25,65.26 136.39,62.48 136.62,59.43 136.85,56.38 136.90,53.74 136.95,51.10 136.98,47.67 137.00,44.24 137.06,39.75 137.12,35.26 137.25,29.62 137.39,23.97 137.62,14.82 137.85,5.67 138.04,1.24 138.23,-3.17 138.30,-8.20 138.38,-13.23 138.55,-17.33 138.73,-21.42 138.73,-25.75 138.73,-30.07 138.55,-34.54 138.36,-39.01 138.10,-42.20 137.83,-45.39 137.34,-49.21 136.84,-53.03 134.47,-53.02 132.10,-53.00 129.03,-52.51 125.95,-52.03 122.15,-50.94 118.34,-49.85 114.19,-48.34 110.04,-46.83 105.00,-44.48 99.96,-42.14 94.58,-39.64 89.20,-37.14 84.67,-34.93 80.15,-32.72 74.53,-29.93 68.91,-27.13 61.23,-23.19 53.54,-19.25 48.79,-16.58 44.03,-13.92 37.75,-10.18 31.47,-6.43 27.12,-4.17 22.77,-1.91 19.10,-0.23 15.42,1.44 12.40,2.90 9.38,4.36 6.49,5.80 3.59,7.24 2.67,7.56 1.75,7.89 0.78,7.98 -0.18,8.08 -1.14,7.94 -2.11,7.80 -3.01,7.43 -3.91,7.07 -4.70,6.50 -5.49,5.92 -6.12,5.18 -6.75,4.44 -7.18,3.56 -7.62,2.69 -7.83,1.74 -8.04,0.79 -8.02,-0.18 -8.00,-1.15 -7.74,-2.09 -7.49,-3.03 -7.01,-3.88 -6.54,-4.74 -5.88,-5.45 -5.22,-6.17 -4.40,-6.70 -3.59,-7.24 -3.59,-7.24 L -3.59,-7.24 Z"></path></g><g transform="translate(10 252.5513118560233) rotate(0 119.26171493530273 1.709014892578125)" stroke="none"><path fill="#1e1e1e" d="M 0.03,-8.08 Q 0.03,-8.08 5.07,-8.06 10.11,-8.03 17.77,-8.15 25.44,-8.27 36.47,-8.45 47.51,-8.62 58.43,-8.82 69.35,-9.01 84.01,-9.50 98.67,-10.00 108.20,-10.12 117.73,-10.25 133.29,-9.88 148.86,-9.50 159.34,-9.21 169.81,-8.91 177.33,-8.70 184.85,-8.49 191.29,-8.20 197.74,-7.91 203.21,-7.63 208.68,-7.35 213.14,-7.04 217.59,-6.72 221.23,-6.32 224.86,-5.91 227.76,-5.36 230.65,-4.81 233.71,-4.19 236.78,-3.56 238.80,0.61 240.81,4.79 240.96,5.19 241.10,5.59 241.11,6.02 241.12,6.44 240.99,6.85 240.86,7.25 240.61,7.60 240.36,7.94 240.01,8.18 239.67,8.43 239.26,8.55 238.85,8.67 238.43,8.66 238.00,8.64 237.61,8.49 237.21,8.34 236.88,8.07 236.55,7.81 236.32,7.45 236.10,7.09 236.00,6.67 235.90,6.26 235.94,5.84 235.97,5.41 236.15,5.02 236.32,4.64 236.60,4.32 236.89,4.01 237.26,3.80 237.63,3.59 238.05,3.52 238.47,3.44 238.89,3.50 239.31,3.56 239.69,3.75 240.07,3.95 240.37,4.25 240.66,4.55 240.85,4.93 241.04,5.32 241.09,5.74 241.14,6.16 241.06,6.58 240.98,6.99 240.76,7.36 240.55,7.73 240.23,8.01 239.92,8.29 239.52,8.46 239.13,8.62 238.71,8.65 238.28,8.68 237.87,8.58 237.46,8.47 237.10,8.24 236.75,8.01 236.49,7.68 236.22,7.34 236.22,7.34 236.22,7.34 234.95,9.82 233.68,12.30 230.63,11.68 227.59,11.05 225.31,10.60 223.04,10.15 219.74,9.77 216.45,9.39 212.15,9.09 207.86,8.78 202.43,8.51 197.01,8.23 190.70,7.95 184.39,7.66 176.87,7.45 169.35,7.24 158.91,6.94 148.47,6.65 133.20,6.28 117.94,5.91 108.58,6.03 99.21,6.15 84.43,6.65 69.64,7.15 58.70,7.34 47.77,7.53 36.73,7.71 25.68,7.89 17.86,8.00 10.03,8.12 5.00,8.10 -0.03,8.08 -1.00,7.96 -1.96,7.84 -2.87,7.49 -3.78,7.14 -4.58,6.58 -5.38,6.02 -6.03,5.29 -6.67,4.56 -7.12,3.69 -7.57,2.83 -7.80,1.88 -8.02,0.93 -8.02,-0.03 -8.02,-1.01 -7.78,-1.95 -7.54,-2.90 -7.08,-3.76 -6.63,-4.62 -5.98,-5.34 -5.33,-6.07 -4.52,-6.62 -3.72,-7.17 -2.81,-7.51 -1.89,-7.85 -0.93,-7.97 0.03,-8.08 0.03,-8.08 L 0.03,-8.08 Z"></path></g><g transform="translate(133.7702407836914 175.09995687555454) rotate(0 -10.936790466308594 23.662841796875)" stroke="none"><path fill="#1e1e1e" d="M 2.50,7.68 Q 2.50,7.68 -1.63,9.03 -5.77,10.38 -10.42,12.09 -15.07,13.79 -19.70,15.84 -24.33,17.88 -29.21,21.14 -34.09,24.40 -37.18,28.34 -40.26,32.28 -41.32,34.38 -42.38,36.48 -39.39,38.09 -36.39,39.71 -32.78,40.78 -29.16,41.85 -24.32,41.99 -19.48,42.13 -14.14,41.50 -8.79,40.86 -0.02,36.71 8.74,32.56 13.27,29.38 17.80,26.21 19.19,24.04 20.57,21.86 19.40,18.57 18.22,15.27 16.09,13.13 13.96,10.99 10.52,9.12 7.08,7.24 3.13,6.14 -0.80,5.04 -3.55,5.28 -6.29,5.52 -9.13,6.87 -11.96,8.22 -14.58,9.67 -17.20,11.12 -20.77,9.95 -24.34,8.78 -24.74,8.92 -25.15,9.06 -25.57,9.06 -26.00,9.06 -26.40,8.93 -26.80,8.80 -27.14,8.54 -27.48,8.29 -27.73,7.94 -27.97,7.59 -28.08,7.18 -28.20,6.77 -28.18,6.35 -28.16,5.92 -28.01,5.53 -27.85,5.13 -27.58,4.81 -27.31,4.48 -26.95,4.26 -26.58,4.04 -26.17,3.94 -25.76,3.85 -25.33,3.89 -24.91,3.93 -24.52,4.11 -24.14,4.28 -23.82,4.57 -23.51,4.86 -23.31,5.24 -23.11,5.61 -23.04,6.03 -22.97,6.45 -23.03,6.87 -23.10,7.29 -23.29,7.66 -23.49,8.04 -23.80,8.34 -24.10,8.63 -24.49,8.81 -24.87,8.99 -25.29,9.04 -25.71,9.09 -26.13,9.00 -26.55,8.92 -26.91,8.70 -27.28,8.48 -27.55,8.16 -27.83,7.84 -27.99,7.45 -28.15,7.05 -28.18,6.63 -28.21,6.20 -28.10,5.79 -27.98,5.38 -27.75,5.03 -27.51,4.68 -27.18,4.42 -26.84,4.16 -26.84,4.16 -26.84,4.16 -25.87,0.53 -24.89,-3.09 -21.37,-4.96 -17.84,-6.83 -12.41,-8.70 -6.97,-10.57 -1.63,-10.50 3.70,-10.44 9.54,-8.52 15.38,-6.60 20.73,-3.12 26.08,0.35 29.67,4.94 33.26,9.53 34.79,15.16 36.31,20.80 35.10,25.79 33.89,30.77 30.53,35.05 27.17,39.33 21.29,43.30 15.42,47.28 4.30,52.07 -6.80,56.87 -13.65,57.57 -20.50,58.26 -27.64,57.62 -34.78,56.97 -41.07,54.21 -47.36,51.44 -51.71,45.69 -56.07,39.94 -54.56,31.30 -53.06,22.65 -48.09,16.84 -43.12,11.03 -37.00,7.07 -30.88,3.10 -25.75,0.86 -20.63,-1.38 -15.71,-3.18 -10.79,-4.97 -6.65,-6.33 -2.50,-7.68 -1.55,-7.87 -0.59,-8.06 0.37,-8.01 1.35,-7.97 2.28,-7.69 3.21,-7.41 4.05,-6.92 4.89,-6.42 5.59,-5.75 6.29,-5.07 6.81,-4.24 7.32,-3.41 7.62,-2.48 7.93,-1.56 8.00,-0.59 8.07,0.38 7.91,1.34 7.74,2.30 7.36,3.19 6.97,4.08 6.38,4.86 5.79,5.63 5.03,6.25 4.27,6.86 3.39,7.27 2.50,7.68 2.50,7.68 L 2.50,7.68 Z"></path></g><g transform="translate(123.94842694215902 10) rotate(0 -7.073117310147708 183.06753779376692)" stroke="none"><path fill="#1e1e1e" d="M 8.03,-0.85 Q 8.03,-0.85 8.94,7.72 9.85,16.29 10.59,25.31 11.34,34.32 11.99,51.00 12.64,67.69 12.76,83.35 12.87,99.01 11.98,120.01 11.09,141.00 9.74,160.44 8.39,179.87 3.68,223.42 -1.02,266.97 -4.06,295.72 -7.11,324.47 -12.08,345.44 -17.05,366.41 -17.16,366.82 -17.27,367.23 -17.51,367.58 -17.75,367.93 -18.09,368.19 -18.43,368.45 -18.83,368.58 -19.23,368.72 -19.65,368.72 -20.08,368.72 -20.48,368.59 -20.89,368.45 -21.22,368.20 -21.56,367.94 -21.80,367.59 -22.04,367.24 -22.16,366.83 -22.27,366.42 -22.25,366.00 -22.23,365.57 -22.07,365.18 -21.92,364.78 -21.64,364.46 -21.37,364.13 -21.00,363.91 -20.64,363.69 -20.23,363.60 -19.81,363.51 -19.39,363.55 -18.97,363.60 -18.58,363.77 -18.19,363.95 -17.88,364.24 -17.57,364.54 -17.37,364.91 -17.17,365.29 -17.10,365.70 -17.03,366.12 -17.10,366.54 -17.17,366.96 -17.37,367.34 -17.57,367.71 -17.87,368.01 -18.18,368.30 -18.57,368.48 -18.95,368.66 -19.37,368.71 -19.80,368.75 -20.21,368.66 -20.63,368.57 -20.99,368.35 -21.36,368.14 -21.63,367.81 -21.91,367.49 -22.07,367.10 -22.23,366.70 -22.25,366.28 -22.27,365.85 -22.27,365.85 -22.27,365.85 -22.73,344.31 -23.19,322.77 -20.14,294.00 -17.09,265.23 -12.41,221.99 -7.73,178.75 -6.39,159.53 -5.05,140.31 -4.17,119.72 -3.28,99.13 -3.39,83.72 -3.50,68.31 -4.13,51.98 -4.77,35.65 -5.49,26.82 -6.22,17.99 -7.13,9.42 -8.03,0.85 -8.02,-0.12 -8.00,-1.09 -7.76,-2.03 -7.51,-2.98 -7.04,-3.83 -6.58,-4.69 -5.92,-5.41 -5.26,-6.13 -4.45,-6.67 -3.64,-7.21 -2.73,-7.54 -1.81,-7.87 -0.84,-7.98 0.12,-8.08 1.08,-7.95 2.05,-7.81 2.96,-7.45 3.86,-7.09 4.65,-6.53 5.45,-5.96 6.08,-5.22 6.72,-4.48 7.16,-3.61 7.60,-2.74 7.82,-1.80 8.03,-0.85 8.03,-0.85 L 8.03,-0.85 Z"></path></g></svg>